<?xml version="1.0" encoding="UTF-8"?>
<svg width="36px" height="36px" viewBox="0 0 36 36" version="1.1" xmlns="http://www.w3.org/2000/svg">
    <!-- Generator: Sketch 52.4 (67378) - http://www.bohemiancoding.com/sketch -->
    <title>下</title>
    <desc>Created with Sketch.</desc>
    <g id="设计规范" stroke="none" stroke-width="1" fill="none" fill-rule="evenodd">
        <g id="图标" transform="translate(-440.000000, -864.000000)">
            <g id="下" transform="translate(440.000000, 864.000000)">
                <rect id="矩形" fill="#000000" opacity="0" x="0" y="0" width="36" height="36"></rect>
                <path d="M18,3 C9.71621622,3 3,9.71621622 3,18 C3,26.2837838 9.71621622,33 18,33 C26.2837838,33 33,26.2837838 33,18 C33,9.71621622 26.2837838,3 18,3 Z M18,31 C10.8181132,31 5,25.1818868 5,18 C5,10.8181132 10.8181132,5 18,5 C25.1818868,5 31,10.8181132 31,18 C31,25.1818868 25.1818868,31 18,31 Z"
                      id="形状" fill="#384953" fill-rule="nonzero"></path>
                <path d="M17.6769448,20.2627312 L22.6390746,15.3006015 C23.0295989,14.9100772 23.6627638,14.9100772 24.0532881,15.3006015 C24.4438124,15.6911258 24.4438124,16.3242907 24.0532881,16.714815 L18.3964339,22.3716693 C18.1375354,22.6305678 17.7719952,22.7178293 17.4412099,22.6334536 C17.2611022,22.5938619 17.0898175,22.5040311 16.9497475,22.363961 L11.2928932,16.7071068 C10.9023689,16.3165825 10.9023689,15.6834175 11.2928932,15.2928932 C11.6834175,14.9023689 12.3165825,14.9023689 12.7071068,15.2928932 L17.6769448,20.2627312 Z"
                      id="路径" fill="#384953"></path>
            </g>
        </g>
    </g>
</svg>