<?xml version="1.0" encoding="UTF-8"?>
<svg width="36px" height="36px" viewBox="0 0 36 36" version="1.1" xmlns="http://www.w3.org/2000/svg">
    <!-- Generator: Sketch 52.4 (67378) - http://www.bohemiancoding.com/sketch -->
    <title>DZ_icon_default.png</title>
    <desc>Created with Sketch.</desc>
    <g id="设计规范" stroke="none" stroke-width="1" fill="none" fill-rule="evenodd">
        <g id="图标" transform="translate(-85.000000, -864.000000)">
            <g id="DZ_icon_default.png" transform="translate(85.000000, 864.000000)">
                <rect id="矩形" fill="#000000" opacity="0" x="0" y="0" width="36" height="36"></rect>
                <path d="M20.4953125,3 C18.9132812,3 17.5351562,4.07929687 17.2433594,5.60859375 C17.2433594,5.60859375 16.7722656,8.00273437 16.5261719,8.8640625 C16.121875,10.284375 14.7050781,11.8523437 13.6820312,12.3550781 C12.9085937,12.7382812 10.0363281,12.7417969 9.85703125,12.7417969 L5.95117188,12.7417969 C4.87539062,12.7417969 4,13.6136719 4,14.6929688 L4,30.3023437 C4,31.378125 4.871875,32.2535156 5.95117188,32.2535156 L23.9617187,32.2535156 C26.8585937,32.2535156 29.3195313,30.1335937 29.7484375,27.2683594 L31.2566406,17.2207031 C31.6117188,14.8617187 29.7835937,12.7417969 27.3964844,12.7417969 L22.95625,12.7417969 C22.95625,12.7417969 23.6136719,10.5585938 23.9511719,6.87070313 C24.1199219,5.00390625 22.7945312,3.22148438 20.8539062,3.02109375 C20.734375,3.00703125 20.6148437,3 20.4953125,3 Z M11.8011719,30.2988281 L11.8011719,14.6332031 C13.0808594,14.5488281 14.0019531,14.3695312 14.546875,14.0988281 C15.9847656,13.3886719 17.8199219,11.4339844 18.4,9.39492187 C18.6601562,8.484375 19.103125,6.234375 19.1558594,5.97070312 C19.2683594,5.38007812 19.8308594,4.94765625 20.4917969,4.94765625 C20.5445313,4.94765625 20.5972656,4.95117187 20.65,4.9546875 C21.578125,5.04960937 22.0738281,5.92851562 22.0070313,6.68789062 C21.6976563,10.1015625 21.0929688,12.1582031 21.0859375,12.1722656 L20.3265625,14.6859375 L27.3964844,14.6859375 C27.9730469,14.6859375 28.5003906,14.9285156 28.8765625,15.3644531 C29.2527344,15.8003906 29.4144531,16.3558594 29.3265625,16.9289062 L27.821875,26.9765625 C27.5335937,28.903125 25.909375,30.2988281 23.9617188,30.2988281 L11.8011719,30.2988281 Z M5.95117188,30.2988281 L5.95117188,14.6894531 L9.85,14.6894531 L9.85,30.2988281 L5.95117188,30.2988281 Z"
                      id="形状" fill="#384953" fill-rule="nonzero"></path>
            </g>
        </g>
    </g>
</svg>