<?xml version="1.0" encoding="UTF-8"?>
<svg width="36px" height="36px" viewBox="0 0 36 36" version="1.1" xmlns="http://www.w3.org/2000/svg">
    <!-- Generator: Sketch 52.4 (67378) - http://www.bohemiancoding.com/sketch -->
    <title>DZ_icon_selected.png</title>
    <desc>Created with Sketch.</desc>
    <g id="设计规范" stroke="none" stroke-width="1" fill="none" fill-rule="evenodd">
        <g id="图标" transform="translate(-85.000000, -802.000000)">
            <g id="DZ_icon_selected.png" transform="translate(85.000000, 802.000000)">
                <rect id="矩形" fill="#000000" opacity="0" x="0" y="0" width="36" height="36"></rect>
                <path d="M20.4953125,3 C20.6148438,3 20.734375,3.00703125 20.8539063,3.02109375 C22.7945313,3.22148437 24.1199219,5.00390625 23.9511719,6.87070312 C23.6136719,10.5585937 22.95625,12.7417969 22.95625,12.7417969 L27.3964844,12.7417969 C29.7835938,12.7417969 31.6117188,14.8617187 31.2566406,17.2207031 L29.7484375,27.2683594 C29.3195313,30.1335937 26.8585938,32.2535156 23.9617188,32.2535156 L5.95117188,32.2535156 C4.871875,32.2535156 4,31.378125 4,30.3023437 L4,14.6929687 C4,13.6136719 4.87539063,12.7417969 5.95117188,12.7417969 L9.85703125,12.7417969 C10.0363281,12.7417969 12.9085938,12.7382812 13.6820313,12.3550781 C14.7050781,11.8523437 16.121875,10.284375 16.5261719,8.8640625 C16.7722656,8.00273437 17.2433594,5.60859375 17.2433594,5.60859375 C17.5351563,4.07929687 18.9132813,3 20.4953125,3 Z M7.95117187,29.6894531 L9.95117187,29.6894531 L9.95117187,14.6894531 L7.95117187,14.6894531 L7.95117187,29.6894531 Z"
                      id="形状" fill="#0E90FD" fill-rule="nonzero"></path>
            </g>
        </g>
    </g>
</svg>