<?xml version="1.0" encoding="UTF-8"?>
<svg width="36px" height="36px" viewBox="0 0 36 36" version="1.1" xmlns="http://www.w3.org/2000/svg">
    <!-- Generator: Sketch 52.4 (67378) - http://www.bohemiancoding.com/sketch -->
    <title>fx_icon_HighIiht.png</title>
    <desc>Created with Sketch.</desc>
    <g id="设计规范" stroke="none" stroke-width="1" fill="none" fill-rule="evenodd">
        <g id="图标" transform="translate(-373.000000, -802.000000)">
            <g id="fx_icon_HighIiht.png" transform="translate(373.000000, 802.000000)">
                <rect id="矩形" fill="#000000" opacity="0" x="0" y="0" width="36" height="36"></rect>
                <path d="M7.06850899,29.8558454 L28.8563625,29.8558454 C29.4086472,29.8558454 29.8563625,29.4081301 29.8563625,28.8558454 L29.8563625,18.1620469 C29.8563625,17.6806014 30.3186742,17.2896532 30.8916512,17.2896532 C31.4625597,17.2896532 31.9248715,17.6806014 31.9248715,18.1620469 L31.9248715,29.9243544 C31.9248715,31.0289239 31.029441,31.9243544 29.9248715,31.9243544 L6,31.9243544 C4.8954305,31.9243544 4,31.0289239 4,29.9243544 L4,6 C4,4.8954305 4.8954305,4 6,4 L17.7623075,4 C18.243753,4 18.6347012,4.46231176 18.6347012,5.03528875 C18.6347012,5.60619723 18.243753,6.06850899 17.7623075,6.06850899 L7.06850899,6.06850899 C6.51622424,6.06850899 6.06850899,6.51622424 6.06850899,7.06850899 L6.06850899,28.8558454 C6.06850899,29.4081301 6.51622424,29.8558454 7.06850899,29.8558454 Z M31.9248715,4.07512854 L30.1811184,4.07512854 L31.9248715,4.07512854 Z M32,5.74427021 L32,4 L32,5.74427021 Z M4,5.74427021 L4,4 L5.74427021,4 L4,4 L4,5.74427021 Z M4.07512854,31.9243544 L4.07512854,30.1806013 L4.07512854,31.9243544 Z M5.74427021,31.9994829 L4,31.9994829 L5.74427021,31.9994829 Z M31.9248715,31.9994829 L30.1811184,31.9994829 L31.9248715,31.9994829 Z M29.8563625,7.52953768 L11.8846392,25.5026682 C11.5433352,25.8455235 10.9398477,25.7943279 10.534937,25.3878659 C10.1305435,24.9855409 10.0793479,24.3799849 10.4206519,24.0412665 L28.3934095,6.06850899 L24.0712599,6.06850899 C23.5887802,6.06850899 23.1983491,5.60619723 23.1983491,5.03528875 C23.1983491,4.4628289 23.5887802,4 24.0712599,4 L29.9248715,4 C31.029441,4 31.9248715,4.8954305 31.9248715,6 L31.9248715,11.3302788 C31.9248715,11.8117242 31.4625597,12.2031896 30.8916512,12.2031896 C30.3181571,12.2031896 29.8563625,11.8117242 29.8563625,11.3302788 L29.8563625,7.52953768 Z"
                      id="形状" fill="#0E90FD" fill-rule="nonzero"></path>
            </g>
        </g>
    </g>
</svg>