<?xml version="1.0" encoding="UTF-8"?>
<svg width="36px" height="36px" viewBox="0 0 36 36" version="1.1" xmlns="http://www.w3.org/2000/svg">
    <!-- Generator: Sketch 52.4 (67378) - http://www.bohemiancoding.com/sketch -->
    <title>账号</title>
    <desc>Created with Sketch.</desc>
    <g id="界面设计" stroke="none" stroke-width="1" fill="none" fill-rule="evenodd">
        <g id="6.1.-Login-" transform="translate(-624.000000, -380.000000)">
            <rect fill="#FFFFFF" x="0" y="0" width="750" height="1334"></rect>
            <g id="账号" transform="translate(624.000000, 380.000000)">
                <rect id="矩形" fill="#000000" opacity="0" x="0" y="0" width="36" height="36"></rect>
                <path d="M12.8568371,15.4253696 C13.5981864,16.1663952 14.5008864,16.7695263 15.4665437,17.1693232 C16.4332443,17.5701994 17.4979424,17.7820598 18.5455881,17.7820598 C19.5931978,17.7820598 20.657896,17.5701634 21.623913,17.1693232 C22.5902538,16.7695623 23.4929538,16.1663952 24.2342672,15.4253696 C24.974969,14.6847758 25.5781001,13.7821118 25.9782208,12.8153392 C26.3787372,11.8489264 26.5906695,10.7842643 26.5906695,9.7367265 C26.5907055,8.6898363 26.379061,7.6250662 25.9782208,6.65836562 C25.5788196,5.6927443 24.9756885,4.79004434 24.2342672,4.04793949 C23.4945007,3.3081011 22.5918367,2.70525783 21.6243087,2.30409383 C19.6900082,1.50309689 17.4010961,1.50309689 15.4668315,2.30409383 C14.4993754,2.70525783 13.5967834,3.3081011 12.8564413,4.04793949 C12.1159194,4.78968458 11.5131121,5.69234858 11.1133511,6.6579699 C10.7125109,7.62578571 10.5005066,8.69019606 10.5005066,9.7367265 C10.5005066,10.7838686 10.7125829,11.8481709 11.1133511,12.8150514 C11.5134359,13.7825075 12.1166029,14.6851715 12.8568371,15.4253696 Z M24.9920934,19.6216365 L12.098831,19.6216365 C8.34801405,19.6216365 5.29652696,22.6731236 5.29652696,26.4243723 C5.29652696,30.175441 8.34797809,33.2268922 12.098831,33.2268922 L24.9921293,33.2268922 C28.7432341,33.2268922 31.7947571,30.175441 31.7947571,26.4243723 C31.7947212,22.6731596 28.7431981,19.6216365 24.9920934,19.6216365 Z"
                      id="形状" fill="#BFBFBF" fill-rule="nonzero"></path>
            </g>
        </g>
    </g>
</svg>