<?xml version="1.0" encoding="UTF-8"?>
<svg width="36px" height="36px" viewBox="0 0 36 36" version="1.1" xmlns="http://www.w3.org/2000/svg">
    <!-- Generator: Sketch 52.4 (67378) - http://www.bohemiancoding.com/sketch -->
    <title>眼睛</title>
    <desc>Created with Sketch.</desc>
    <g id="界面设计" stroke="none" stroke-width="1" fill="none" fill-rule="evenodd">
        <g id="6.1.-Login-" transform="translate(-624.000000, -530.000000)">
            <rect fill="#FFFFFF" x="0" y="0" width="750" height="1334"></rect>
            <g id="眼睛" transform="translate(624.000000, 530.000000)">
                <rect id="矩形" fill="#000000" opacity="0" x="0" y="0" width="36" height="36"></rect>
                <path d="M18,7.36183269 C10.9078765,7.36183269 4.85123885,11.7731258 2.39734259,18 C4.85120285,24.2268742 10.9078765,28.6381673 18,28.6381673 C25.0992107,28.6381673 31.1487971,24.2268742 33.6026574,18 C31.1487611,11.7731258 25.0992107,7.36183269 18,7.36183269 Z M18,25.0921235 C14.0851703,25.0921235 10.9078765,21.9148657 10.9078765,18 C10.9078765,14.0851343 14.0851343,10.9078765 18,10.9078765 C21.9148657,10.9078765 25.0921235,14.0851343 25.0921235,18 C25.0921235,21.9148657 21.9148297,25.0921235 18,25.0921235 Z M18,13.7447331 C15.6525196,13.7447331 13.7447331,15.6525196 13.7447331,18 C13.7447331,20.3474804 15.6525196,22.2552669 18,22.2552669 C20.3474804,22.2552669 22.2552669,20.3474804 22.2552669,18 C22.2552669,15.6525196 20.3474804,13.7447331 18,13.7447331 Z"
                      id="形状" fill="#BFBFBF" fill-rule="nonzero"></path>
            </g>
        </g>
    </g>
</svg>