<?xml version="1.0" encoding="UTF-8"?>
<svg width="72px" height="72px" viewBox="0 0 72 72" version="1.1" xmlns="http://www.w3.org/2000/svg">
    <!-- Generator: Sketch 52.4 (67378) - http://www.bohemiancoding.com/sketch -->
    <title>phone_icon.png</title>
    <desc>Created with Sketch.</desc>
    <g id="设计规范" stroke="none" stroke-width="1" fill="none" fill-rule="evenodd">
        <g id="图标" transform="translate(-768.000000, -688.000000)">
            <g id="phone_icon.png" transform="translate(768.000000, 688.000000)">
                <rect id="矩形-copy-3" fill="#000000" opacity="0" x="0" y="0" width="72" height="72"></rect>
                <circle id="椭圆形-copy" fill="#05CCF5" cx="36" cy="36" r="34"></circle>
                <rect id="矩形" fill="#000000" opacity="0" x="20" y="20" width="32" height="32"></rect>
                <path d="M43.4140108,21 L28.7,21 C27.2,21 26,22.3 26,23.8 L26,48.2 C26,49.7 27.2,51 28.7,51 L43.3140108,51 C44.8140108,51 46.0140108,49.7 46.0140108,48.2 L46.0140108,23.8 C46.1140108,22.3 44.9140108,21 43.4140108,21 Z M43.0088075,48.997971 C42.6144913,48.997971 37.9444921,48.9978691 28.9988098,48.9976654 C28.4606628,48.9976654 28.0077406,48.6222229 28.0077406,48.0017853 C28.0077406,47.3813477 28.0081401,24.4976824 28.0081401,23.9976824 C28.0081401,23.4976824 28.4983346,23.0222192 28.9983346,23.0222192 C29.3316679,23.0222192 29.7322231,23.0222192 30.2,23.0222192 L30.9,24.0222192 C31.2,24.5222192 31.8,24.8222192 32.4,24.8222192 L39.5,24.8222192 C40.1,24.8222192 40.7,24.5222192 41,24.0222192 L41.7,23.0222192 C42.2379534,23.0222192 42.6735967,23.0222192 43.00693,23.0222192 C43.50693,23.0222192 43.9994934,23.4222192 43.9994934,23.9222192 C43.9992527,39.6319175 43.9992527,47.6603778 43.9994934,48.0076 C43.9998545,48.5284332 43.6002817,48.997971 43.0088075,48.997971 Z"
                      id="形状" fill="#FFFFFF" fill-rule="nonzero"></path>
                <path d="M39.0136986,45 L32.9863014,45 C32.4383562,45 32,45.4444444 32,46 C32,46.5555556 32.4383562,47 32.9863014,47 L39.0136986,47 C39.5616438,47 40,46.5555556 40,46 C40,45.4444444 39.5616438,45 39.0136986,45 Z"
                      id="路径" fill="#FFFFFF"></path>
            </g>
        </g>
    </g>
</svg>