<?xml version="1.0" encoding="UTF-8"?>
<svg width="36px" height="36px" viewBox="0 0 36 36" version="1.1" xmlns="http://www.w3.org/2000/svg">
    <!-- Generator: Sketch 52.4 (67378) - http://www.bohemiancoding.com/sketch -->
    <title>plun_icon_highiight.png</title>
    <desc>Created with Sketch.</desc>
    <g id="设计规范" stroke="none" stroke-width="1" fill="none" fill-rule="evenodd">
        <g id="图标" transform="translate(-277.000000, -802.000000)">
            <g id="plun_icon_highiight.png" transform="translate(277.000000, 802.000000)">
                <rect id="矩形" fill="#000000" opacity="0" x="0" y="0" width="36" height="36"></rect>
                <path d="M5.72328181,5 C4.15860999,5 2.89019287,6.34314575 2.89019286,8.00022194 L2.88872573,22 C2.88921211,23.6577865 4.15802335,25.0005147 5.72220898,25.0000001 L11.4231714,24.9965704 C12.6176769,24.9961773 13.7419737,25.5940763 14.4549979,26.6088904 L17.1871457,30.4974285 C17.504653,30.9493218 18.1283755,31.0582632 18.5802688,30.7407559 C18.6734153,30.6753097 18.754703,30.5944391 18.8206276,30.5016305 L21.5976525,26.5921349 C22.3115001,25.5871804 23.4300863,24.9961963 24.6181185,24.996587 L30.2773054,24.9999999 C31.8428569,25 33.111274,23.6568542 33.1112741,22.0002217 L33.1098082,8 C33.1098082,6.34314575 31.841391,5 30.2767192,5 L5.72328181,5 Z M5.72328181,3 L30.2767192,3 C32.8845056,3 34.9985341,5.23857625 34.9985341,8 L35,22 C35,24.7614237 32.8859715,27 30.2781851,27 L24.6170429,26.9965867 C24.0232714,26.9963915 23.4639783,27.2918835 23.1070545,27.7943607 L19.5103147,32.8578509 C18.883285,33.7405831 17.6991948,33.9179242 16.8655751,33.2539532 C16.7213083,33.1390459 16.5933436,33.0028308 16.4855864,32.8494649 L12.9396716,27.8027303 C12.5831595,27.2953233 12.0210111,26.9963738 11.4237583,26.9965703 L5.72328203,26.9999998 C3.1154958,27.0008579 1.00081041,24.7629774 1,22.0015538 L1.00146692,8 C1.00146692,5.23857625 3.11549545,3 5.72328181,3 Z"
                      id="矩形" fill="#0E90FD" fill-rule="nonzero"></path>
            </g>
        </g>
    </g>
</svg>