<?xml version="1.0" encoding="UTF-8"?>
<svg width="72px" height="72px" viewBox="0 0 72 72" version="1.1" xmlns="http://www.w3.org/2000/svg">
    <!-- Generator: Sketch 52.4 (67378) - http://www.bohemiancoding.com/sketch -->
    <title>sm_icon.png</title>
    <desc>Created with Sketch.</desc>
    <g id="设计规范" stroke="none" stroke-width="1" fill="none" fill-rule="evenodd">
        <g id="图标" transform="translate(-652.000000, -688.000000)">
            <g id="sm_icon.png" transform="translate(652.000000, 688.000000)">
                <rect id="矩形" fill="#000000" opacity="0" x="0" y="0" width="72" height="72"></rect>
                <circle id="椭圆形" fill="#0E90FD" cx="36" cy="36" r="34"></circle>
                <rect id="矩形" fill="#000000" opacity="0" x="20" y="20" width="32" height="32"></rect>
                <path d="M48.071875,37.071875 L23.928125,37.071875 C23.415625,37.071875 23,36.6240636 23,36.071875 C23,35.5196864 23.415625,35.071875 23.928125,35.071875 L48.071875,35.071875 C48.584375,35.071875 49,35.5196864 49,36.071875 C49,36.6240636 48.584375,37.071875 48.071875,37.071875 Z"
                      id="形状" fill="#FFFFFF" fill-rule="nonzero"></path>
                <path d="M25,25 L25,30 C25,30.5522847 24.5522847,31 24,31 C23.4477153,31 23,30.5522847 23,30 L23,24 C23,23.4477153 23.4477153,23 24,23 L30,23 C30.5522847,23 31,23.4477153 31,24 C31,24.5522847 30.5522847,25 30,25 L25,25 Z M25,47 L30,47 C30.5522847,47 31,47.4477153 31,48 C31,48.5522847 30.5522847,49 30,49 L24,49 C23.4477153,49 23,48.5522847 23,48 L23,42 C23,41.4477153 23.4477153,41 24,41 C24.5522847,41 25,41.4477153 25,42 L25,47 Z M47,25 L42,25 C41.4477153,25 41,24.5522847 41,24 C41,23.4477153 41.4477153,23 42,23 L48,23 C48.5522847,23 49,23.4477153 49,24 L49,30 C49,30.5522847 48.5522847,31 48,31 C47.4477153,31 47,30.5522847 47,30 L47,25 Z M47,47 L47,42 C47,41.4477153 47.4477153,41 48,41 C48.5522847,41 49,41.4477153 49,42 L49,48 C49,48.5522847 48.5522847,49 48,49 L42,49 C41.4477153,49 41,48.5522847 41,48 C41,47.4477153 41.4477153,47 42,47 L47,47 Z"
                      id="形状" fill="#FFFFFF"></path>
            </g>
        </g>
    </g>
</svg>