<?xml version="1.0" encoding="UTF-8"?>
<svg width="72px" height="72px" viewBox="0 0 72 72" version="1.1" xmlns="http://www.w3.org/2000/svg">
    <!-- Generator: Sketch 52.4 (67378) - http://www.bohemiancoding.com/sketch -->
    <title>zu_icon.png</title>
    <desc>Created with Sketch.</desc>
    <g id="设计规范" stroke="none" stroke-width="1" fill="none" fill-rule="evenodd">
        <g id="图标" transform="translate(-884.000000, -688.000000)">
            <g id="zu_icon.png" transform="translate(884.000000, 688.000000)">
                <rect id="矩形-copy-4" fill="#000000" opacity="0" x="0" y="0" width="72" height="72"></rect>
                <circle id="椭圆形-copy-2" fill="#FFC719" cx="36" cy="36" r="34"></circle>
                <rect id="矩形" fill="#000000" opacity="0" x="20" y="20" width="32" height="32"></rect>
                <path d="M30.096,40.64 C27.408,40.64 25.232,38.464 25.232,35.776 C25.232,33.088 27.408,30.912 30.096,30.912 C32.784,30.912 34.96,33.088 34.96,35.776 C34.96,38.464 32.784,40.64 30.096,40.64 Z M30.096,32.512 C28.304,32.512 26.832,33.984 26.832,35.776 C26.832,37.568 28.304,39.04 30.096,39.04 C31.888,39.04 33.36,37.568 33.36,35.776 C33.36,33.984 31.888,32.512 30.096,32.512 Z"
                      id="形状" fill="#FFFFFF" fill-rule="nonzero"></path>
                <path d="M22.5,48.75 C22.08,48.75 21.75,48.42 21.75,48 C21.75,43.14 25.695,39.195 30.555,39.195 C32.745,39.195 34.86,40.005 36.495,41.49 C36.795,41.775 36.825,42.24 36.54,42.555 C36.255,42.855 35.79,42.885 35.475,42.6 C34.125,41.37 32.37,40.695 30.555,40.695 C26.52,40.695 23.25,43.965 23.25,48 C23.25,48.42 22.92,48.75 22.5,48.75 Z M41.73,40.35 C39.21,40.35 37.17,38.31 37.17,35.79 C37.17,33.27 39.21,31.23 41.73,31.23 C44.25,31.23 46.29,33.27 46.29,35.79 C46.29,38.31 44.25,40.35 41.73,40.35 Z M41.73,32.73 C40.05,32.73 38.67,34.11 38.67,35.79 C38.67,37.47 40.05,38.85 41.73,38.85 C43.41,38.85 44.79,37.47 44.79,35.79 C44.79,34.11 43.41,32.73 41.73,32.73 Z"
                      id="形状" fill="#FFFFFF" fill-rule="nonzero"></path>
                <path d="M49.875,48.75 C49.455,48.75 49.125,48.42 49.125,48 C49.125,43.965 45.855,40.695 41.82,40.695 C37.785,40.695 34.515,43.965 34.515,48 C34.515,48.42 34.185,48.75 33.765,48.75 C33.345,48.75 33.015,48.42 33.015,48 C33.015,43.14 36.96,39.195 41.82,39.195 C46.68,39.195 50.625,43.14 50.625,48 C50.625,48.42 50.295,48.75 49.875,48.75 Z M36.18,31.17 C33.66,31.17 31.62,29.13 31.62,26.61 C31.62,24.09 33.66,22.05 36.18,22.05 C38.7,22.05 40.74,24.09 40.74,26.61 C40.74,29.13 38.7,31.17 36.18,31.17 Z M36.18,23.55 C34.5,23.55 33.12,24.93 33.12,26.61 C33.12,28.29 34.5,29.67 36.18,29.67 C37.86,29.67 39.24,28.29 39.24,26.61 C39.24,24.93 37.86,23.55 36.18,23.55 Z"
                      id="形状" fill="#FFFFFF" fill-rule="nonzero"></path>
                <path d="M40.816,32.512 C40.672,32.512 40.528,32.48 40.4,32.384 C39.168,31.616 37.744,31.216 36.288,31.216 C34.832,31.216 33.424,31.616 32.176,32.384 C31.808,32.624 31.312,32.496 31.072,32.128 C30.832,31.76 30.96,31.264 31.328,31.024 C32.816,30.096 34.528,29.6 36.272,29.6 C38.016,29.6 39.728,30.096 41.216,31.024 C41.584,31.264 41.712,31.744 41.472,32.128 C41.344,32.384 41.088,32.512 40.816,32.512 Z"
                      id="路径" fill="#FFFFFF"></path>
            </g>
        </g>
    </g>
</svg>